<svg width="432" height="316" viewBox="0 0 432 316" fill="none" xmlns="http://www.w3.org/2000/svg">
<path d="M0 315.989C0.791024 314.61 1.27503 313.71 1.8096 312.844C26.967 271.918 52.1173 230.989 77.318 190.093C78.752 187.763 79.6116 185.408 79.9006 182.671C83.043 152.924 86.2902 123.184 89.4435 93.4376C89.5807 92.1265 89.2917 90.7034 88.9089 89.4176C80.4496 60.8086 71.9506 32.2103 63.4661 3.61209C63.1771 2.64052 62.9387 1.65089 62.4981 0.00390625C126.412 17.7884 189.745 35.4104 253.608 53.1804C234.905 78.9001 216.451 104.273 197.774 129.96C200.869 131.022 203.575 132.048 206.352 132.828C207.05 133.023 208.064 132.571 208.776 132.152C217.701 126.908 226.623 121.657 235.476 116.293C237.105 115.307 238.221 115.296 239.788 116.434C246.662 121.422 253.612 126.305 260.604 131.119C261.663 131.845 263.089 132.373 264.357 132.402C275.273 132.636 286.192 132.687 297.111 132.922C299.216 132.969 299.892 132.38 299.939 130.238C300.159 119.97 300.607 109.705 300.824 99.4368C300.867 97.3202 301.6 96.5365 303.627 96.1067C345.551 87.2469 387.457 78.3222 429.37 69.4191C430.05 69.2746 430.75 69.253 431.996 69.1121C411.708 107.899 391.64 146.26 371.575 184.625C371.702 184.773 371.828 184.917 371.958 185.065C384.037 177.434 396.115 169.802 408.771 161.805C407.959 166.223 407.294 169.932 406.586 173.638C398.372 216.759 390.155 259.88 381.942 303.001C381.511 305.262 380.131 306.421 377.802 306.476C341.578 307.372 305.357 308.246 269.136 309.167C231.459 310.128 193.786 311.146 156.11 312.118C105.333 313.425 54.5553 314.711 3.78174 316C2.69093 316.029 1.60011 316 0.00361198 316L0 315.989Z" fill="#53D4F9"/>
<path d="M76.4404 14.6387C76.8052 16.0798 77.0038 16.99 77.2639 17.8821C83.8955 40.5064 90.5416 63.1235 97.1551 85.755C97.491 86.9036 97.7763 88.1388 97.733 89.3199C96.6205 119.775 95.443 150.229 94.345 180.688C94.2619 182.981 93.5503 184.859 92.3403 186.766C68.1581 224.889 44.0229 263.037 19.8876 301.184C19.4433 301.889 19.0894 302.647 18.8438 303.102C25.237 303.102 31.4676 303.29 37.6838 303.07C70.4915 301.921 103.292 300.661 136.096 299.465C162.34 298.508 188.589 297.605 214.837 296.659C248.129 295.456 281.42 294.239 314.712 293.022C329.615 292.476 344.518 291.884 359.425 291.404C361.353 291.342 362.206 290.707 362.791 288.818C373.482 254.307 384.253 219.818 395.003 185.325C395.273 184.451 395.49 183.563 395.927 181.984C380.515 190.819 365.767 199.274 351.019 207.729C350.897 207.577 350.774 207.426 350.651 207.274C372.977 165.272 395.299 123.271 417.819 80.9008C416.927 81.0308 416.609 81.038 416.313 81.1247C381.617 91.2052 346.923 101.3 312.216 111.345C310.735 111.774 310.139 112.515 309.897 113.981C308.897 119.977 307.676 125.936 306.787 131.946C306.487 133.987 305.574 134.597 303.739 134.879C288.843 137.173 273.961 139.564 259.062 141.821C258.054 141.973 256.631 141.601 255.894 140.929C250.187 135.76 244.549 130.512 239.012 125.16C237.589 123.784 236.606 123.625 234.876 124.661C225.496 130.292 216.011 135.746 206.609 141.341C205.207 142.175 204.026 142.276 202.52 141.72C198.189 140.113 193.808 138.653 189.448 137.122C188.726 136.869 188.029 136.548 187.115 136.172C201.754 111.55 216.224 87.207 230.849 62.607C179.295 46.5923 128.128 30.6967 76.4368 14.6387H76.4404Z" fill="#0C0A32"/>
<path d="M166.115 144.122L209.69 71.5859L98.4482 37.7542L120.618 73.5074L108.829 180.388L84.2206 221.396L146.249 190.638L129.204 171.799L138.433 117.719L166.115 144.118V144.122ZM137.277 72.738L178.93 84.9134L149.327 102.983L135.998 88.1171L137.281 72.738H137.277Z" fill="#CE015C"/>
<path d="M146.379 134.894L142.789 153.603L138.176 167.187L152.017 191.794L92.8063 230.241L209.177 231.52L215.072 195.893L200.718 210.503L153.813 216.654L161.372 200.123L182.008 205.378L190.72 195.38L164.193 177.058L168.806 170.56L199.053 188.59L223.657 160.396L184.312 159.497L146.379 134.894Z" fill="#CE015C"/>
<path d="M236.346 139.762L211.229 153.603L230.661 158.215L192.132 224.47L164.063 231.007L209.177 231.52L223.787 218.705L232.373 219.601L239.424 240.748L262.62 238.057L280.817 245.234L236.346 139.762ZM222.888 199.097L231.091 181.41L240.959 194.243L222.888 199.093V199.097Z" fill="#CE015C"/>
<path d="M287.727 182.248L316.576 148.99L261.211 151.555L238.911 172.315L261.211 171.29L291.202 245.364L294.918 206.277L338.363 206.151L287.727 182.252V182.248ZM273.897 172.442L271.845 167.06L286.582 163.344L273.893 172.442H273.897Z" fill="#CE015C"/>
<path d="M335.029 198.97L362.712 134.381L331.984 148.34L319.393 193.076L335.029 198.97Z" fill="#CE015C"/>
<path d="M373.992 108.751L325.035 127.973L334.903 137.971L332.981 145.144L366.815 124.896L373.992 108.751Z" fill="#CE015C"/>
<path d="M314.78 210.503L330.16 216.145L320.419 241.517L345.154 244.721L367.967 210.633L351.818 262.921L289.919 266.381L301.326 252.154L314.78 210.503Z" fill="#CE015C"/>
<path d="M80.8397 274.045C80.511 273.63 79.962 273.76 79.4599 273.879C77.4155 274.37 75.3567 274.8 73.3159 275.309C70.3722 276.05 67.3345 276.281 64.3835 277.021C63.1807 277.325 61.9707 277.802 60.4609 277.74C61.4469 276.379 62.4222 275.234 63.1771 273.959C64.9975 270.885 67.237 268.158 69.7437 265.63C70.1301 265.24 70.5853 265.149 71.109 265.171C76.0538 265.391 81.0383 264.991 85.9289 266.099C86.6838 266.269 87.2545 266.052 87.7458 265.373C89.8118 262.531 91.5745 259.501 93.3805 256.496C94.092 255.311 93.5791 254.202 92.1704 254.105C90.0177 253.956 87.8505 253.83 85.6978 253.91C82.9996 254.011 80.3087 254.513 77.6142 254.509C71.7736 254.505 66.0414 255.354 60.3272 256.366C59.8071 256.456 58.6513 256.116 58.7416 257.066C58.8102 257.814 59.8035 257.305 60.4645 257.46C60.2767 257.818 60.0022 257.994 59.7204 257.998C58.2684 258.013 57.4015 258.966 56.6466 259.981C54.1508 263.318 51.8824 266.811 49.1698 270C47.1002 272.434 45.1967 275.039 43.145 277.484C40.2591 280.926 37.756 284.664 34.8014 288.034C33.855 289.114 34.032 290.508 33.3132 291.591C32.7353 292.466 33.0821 292.899 33.9887 293.043C35.5599 293.293 37.1564 293.228 38.724 293.123C43.3401 292.823 47.949 292.408 52.5506 291.931C57.239 291.447 61.9526 291.53 66.6663 291.498C68.8046 291.483 71.6689 291.768 72.2395 288.438C72.2648 288.29 72.4238 288.164 72.5104 288.023C73.8288 285.849 75.2375 283.725 76.4294 281.482C77.6033 279.279 79.5719 277.621 80.511 275.273C80.6735 274.862 81.19 274.475 80.8433 274.038L80.8397 274.045ZM86.7633 264.463C86.7958 264.463 86.8681 264.73 86.8283 264.763C86.2938 265.214 85.7989 264.832 85.221 264.745C85.7267 264.203 86.2612 264.434 86.7633 264.463ZM50.6291 287.944C50.4412 288.175 50.2137 288.33 49.8814 288.16C49.9103 287.741 50.1595 287.608 50.5279 287.662C50.6652 287.683 50.7194 287.832 50.6291 287.944ZM73.3773 276.552C73.7566 276.458 74.0889 276.057 74.6632 276.422C74.1467 276.812 73.7566 276.516 73.3773 276.552ZM75.2628 276.624C75.1002 276.599 74.9088 276.574 74.9774 276.35C75.0388 276.144 75.205 276.01 75.4361 276.003C75.5842 275.999 75.6818 276.068 75.6565 276.216C75.624 276.436 75.4976 276.592 75.2592 276.624H75.2628Z" fill="white"/>
<path d="M148.427 260.057C148.954 258.67 148.322 257.619 147.018 257.742C143.75 258.056 140.47 257.684 137.201 258.009C136.721 258.056 136.388 258.146 136.049 258.569C132.816 262.563 130.208 267.009 127.051 271.058C126.817 271.362 126.824 272.052 126.333 271.893C125.838 271.73 126.044 271.087 126.083 270.661C126.311 268.295 126.538 265.926 126.838 263.571C127.066 261.794 127.109 259.956 127.488 258.254C127.777 256.951 127.394 256.81 126.502 256.68C124.512 256.391 122.576 256.878 120.636 257.214C120.348 257.265 120.196 257.51 120.355 257.778C120.868 258.641 120.376 259.378 120.105 260.143C119.347 262.285 118.256 264.29 117.527 266.45C116.042 270.849 113.951 274.992 111.928 279.156C110.205 282.706 109.114 286.499 107.496 290.085C107.283 290.555 107.38 291.27 107.962 290.938C108.731 290.497 109.389 290.804 110.05 290.844C112.083 290.967 114.178 290.703 116.132 291.335C117.155 291.664 117.429 291.454 117.714 290.54C118.274 288.742 119.047 287.022 119.965 285.206C120.174 286 119.867 286.52 119.741 287.084C119.618 287.633 119.582 288.42 120.514 288.189C121.565 287.929 122.576 288.16 123.602 288.189C124.288 288.211 125.061 288.16 125.112 289.236C125.133 289.674 125.56 289.731 125.852 289.424C126.195 289.067 126.51 288.666 126.766 288.243C127.777 286.564 128.973 285.014 130.23 283.458C130.111 284.375 130.129 285.3 129.807 286.192C129.428 287.239 129.117 288.319 128.861 289.406C128.485 291.003 128.875 291.566 130.457 291.823C132.101 292.086 133.755 292.292 135.395 292.574C136.518 292.769 137.15 292.798 137.533 291.281C138.483 287.496 139.704 283.765 141.012 280.084C142.446 276.046 143.666 271.932 145.306 267.963C146.386 265.348 147.419 262.708 148.423 260.06L148.427 260.057ZM135.42 291.274H136.583C136.323 291.631 136.031 291.577 135.42 291.274Z" fill="white"/>
<path d="M112.607 266.042C114.178 263.398 115.88 260.833 117.472 258.204C117.714 257.803 118.834 256.965 117.173 256.882C116.941 256.871 116.819 256.611 116.956 256.405C117.722 255.286 116.573 255.416 116.176 255.387C114.019 255.235 111.867 255.094 109.717 254.856C107.511 254.61 105.304 255.253 103.097 254.979C101.489 254.776 99.8965 254.935 98.2964 254.993C98.0255 255.004 97.6499 254.95 97.5234 255.253C97.3681 255.629 97.7221 255.69 97.9858 255.835C98.5854 256.167 98.2386 256.521 97.8485 256.561C97.0141 256.651 96.7432 257.301 96.4579 257.861C95.4249 259.894 94.3485 261.903 93.1746 263.864C91.8021 266.154 90.3826 268.433 89.2376 270.838C88.2081 272.998 86.8428 274.93 85.6436 276.975C84.011 279.759 82.5735 282.656 80.7602 285.336C79.7814 286.781 78.8278 288.243 77.8418 289.688C77.5961 290.049 77.3686 290.374 77.5709 290.833C78.1452 292.144 79.3263 292.964 80.7783 292.874C84.6503 292.635 88.5404 292.874 92.4089 292.538C94.2438 292.415 96.0823 292.339 97.9063 292.148C99.0224 292.029 100.157 291.57 100.63 290.541C103.032 285.26 105.614 280.07 108.338 274.952C109.887 272.041 110.917 268.881 112.603 266.049L112.607 266.042ZM98.3072 265.341C98.3506 265.243 98.4373 265.128 98.5276 265.103C98.672 265.063 98.7154 265.204 98.6793 265.312C98.6504 265.41 98.5601 265.485 98.5095 265.554C98.3325 265.547 98.2495 265.475 98.3072 265.341ZM98.17 265.832C98.2567 266.338 98.0472 266.645 97.6571 267.244C97.686 266.529 97.5523 266.114 98.17 265.832ZM96.5952 269.079C96.5843 269.025 96.5771 268.971 96.5735 268.917C96.5735 268.917 96.5735 268.913 96.5735 268.909V268.906C96.8083 268.501 96.8516 267.963 97.6715 267.613C97.1333 268.158 97.4693 268.964 96.5735 268.906C96.6349 268.96 96.6638 268.989 96.6638 268.989C96.6963 269.018 96.6638 268.989 96.5735 268.909V268.917C96.5952 268.974 96.5988 269.025 96.5952 269.079C96.6493 269.412 96.7396 269.758 96.364 270.091C96.1581 269.661 96.5699 269.397 96.5952 269.079ZM95.6524 271.037L95.88 271.113C95.7572 271.456 95.6308 271.799 95.508 272.142C95.4213 272.113 95.331 272.084 95.2443 272.055C95.3815 271.716 95.5188 271.376 95.656 271.04L95.6524 271.037ZM94.753 273.403C94.5544 273.879 94.4641 274.089 94.3557 274.352C94.1751 273.998 94.2401 273.767 94.753 273.403ZM101.963 266.497C101.562 267.277 101.078 268.1 100.698 268.971C99.5353 271.647 98.3867 274.327 97.2887 277.029C96.4362 279.127 95.3382 281.081 94.1065 282.97C93.8537 283.357 93.4275 283.187 93.0843 283.079C92.6256 282.938 92.7303 282.555 92.8315 282.244C93.4455 280.344 94.0848 278.452 94.7025 276.552C95.8294 273.096 97.8232 270.018 99.0585 266.609C99.4017 265.659 100.958 265.294 101.771 265.879C101.977 266.027 101.984 266.208 101.963 266.497Z" fill="white"/>
<path d="M211.373 258.786C211.543 258.558 211.828 258.244 211.46 257.857C210.745 258.11 210.484 258.923 209.531 259.486C209.932 258.605 209.856 257.865 210.376 257.409C210.629 257.189 211.319 257.402 211.203 256.77C211.088 256.131 210.484 256.156 209.99 256.167C208.166 256.207 206.345 256.366 204.514 256.153C203.828 256.073 203.022 256.131 202.462 256.81C202.628 257.2 203.456 256.824 203.293 257.493C203.181 257.951 202.849 258.114 202.339 258.078C201.855 258.042 201.7 258.446 201.538 258.876C200.552 261.505 199.649 264.167 198.518 266.746C197.539 268.974 196.351 271.12 195.574 273.514C195.509 273.023 195.394 272.536 195.386 272.044C195.329 267.255 196.08 262.477 195.571 257.684C195.527 257.279 195.628 256.933 196.156 256.922C196.463 256.915 196.799 256.799 196.766 256.441C196.726 256.023 196.333 256.001 195.99 255.994C195.78 255.99 195.571 255.972 195.365 255.994C193.255 256.25 191.142 256.488 189.04 256.795C188.246 256.911 186.873 256.478 187.343 258.193C187.361 258.255 187.299 258.381 187.241 258.414C186.364 258.872 186.631 259.663 186.678 260.375C187.05 265.977 186.667 271.582 186.739 277.184C186.786 280.832 186.53 284.487 186.685 288.142C186.718 288.883 186.671 289.562 187.87 289.121C188.256 288.98 188.776 288.626 189.336 288.81C191.124 289.399 192.941 289.273 194.78 289.052C195.556 288.959 196.033 288.677 196.264 287.969C196.817 286.293 197.767 284.834 198.648 283.317C201.227 278.882 203.596 274.334 205.818 269.704C207.58 266.027 208.899 262.112 211.377 258.793L211.373 258.786Z" fill="white"/>
<path d="M246.947 280.052C244.683 277.975 242.653 275.642 240.074 273.915C239.333 273.421 239.211 273.049 240.041 272.471C241.688 271.329 243.299 270.134 244.874 268.895C247.168 267.089 249.581 265.428 251.73 263.438C252.412 262.806 252.394 262.336 251.571 261.935C250.935 261.628 250.292 261.31 249.617 261.115C247.496 260.498 245.308 260.173 243.144 259.732C240.608 259.215 238.156 258.374 235.678 257.644C234.818 257.391 233.879 257.251 232.991 257.514C232.207 257.745 232.875 258.594 232.467 259.013C232.395 259.085 232.272 259.111 232.135 259.172C231.788 258.482 232.232 257.832 232.12 257.171C231.383 257.381 231.336 257.966 231.25 258.551C230.827 261.292 230.376 264.037 229.502 266.667C228.147 270.752 226.933 274.869 226.02 279.073C225.528 281.338 224.972 283.591 224.427 285.845C224.308 286.336 224.315 286.838 224.755 287.066C225.167 287.275 225.254 286.763 225.402 286.492C225.684 285.982 226.124 286.206 226.514 286.243C228.313 286.405 230.051 286.857 231.766 287.395C232.615 287.662 233.135 287.463 233.254 286.492C233.536 284.162 234.374 281.963 234.88 279.683C235.057 278.896 235.342 278.835 235.935 279.362C236.661 280.009 236.942 280.958 237.694 281.612C239.612 283.284 241.732 284.671 243.74 286.21C244.495 286.788 244.918 286.629 245.387 286.019C246.25 284.892 246.843 283.61 247.478 282.345C247.962 281.385 247.775 280.81 246.944 280.048L246.947 280.052ZM237.444 267.23C236.986 267.508 236.729 267.374 236.816 266.797C236.859 266.508 236.899 266.219 236.935 265.926C237.181 264.041 237.39 263.958 239.041 265.146C239.268 265.309 239.586 265.392 239.695 265.782C238.954 266.258 238.21 266.764 237.441 267.23H237.444Z" fill="white"/>
<path d="M174.083 258.381C172.237 258.807 170.359 258.717 168.495 258.811C166.877 258.905 165.255 258.934 163.648 259.111C162.546 259.23 161.192 259.089 160.74 260.508C159.967 262.939 158.732 265.182 157.89 267.573C156.225 272.312 154.958 277.173 153.91 282.078C153.292 284.964 152.324 287.749 151.696 290.627C151.418 291.902 152.126 292.252 153.018 292.505C153.78 292.718 154.589 292.744 155.351 292.419C156.225 292.047 157.157 292.021 158.067 292.068C160.758 292.202 163.399 291.776 166.043 291.4C167.748 291.158 167.975 290.786 168.282 289.078C168.708 286.708 168.95 284.281 170.142 282.114C170.269 281.887 170.388 281.619 170.171 281.424C169.915 281.193 169.575 281.157 169.232 281.265C166.501 282.129 163.764 282.941 160.892 283.234C159.967 283.328 159.906 283.086 160.141 282.306C161.38 278.192 162.749 274.11 163.637 269.899C163.771 269.271 164.06 269.014 164.663 269.177C166.715 269.733 168.903 269.675 170.886 270.509C171.898 270.936 172.403 270.556 172.656 269.628C173.556 266.331 174.455 263.033 175.311 259.725C175.586 258.663 175.116 258.146 174.087 258.381H174.083ZM153.036 291.393C152.866 291.183 152.761 291.111 152.747 291.028C152.718 290.844 152.83 290.728 153.014 290.793C153.097 290.822 153.199 290.945 153.202 291.032C153.206 291.129 153.115 291.234 153.036 291.396V291.393Z" fill="white"/>
<path d="M270.992 258.5C269.461 258.641 267.944 259.053 266.423 258.72C263.862 259.038 261.435 259.724 258.986 260.36C257.191 260.826 256.064 261.639 255.36 263.401C253.413 268.259 252.329 273.406 250.332 278.242C250.021 278.993 250.115 279.553 251.238 279.308C253.68 278.773 256.147 278.347 258.643 278.137C259.113 278.098 259.777 277.625 259.875 278.585C259.951 279.322 259.795 279.795 258.874 279.961C256.956 280.312 255.071 280.839 253.171 281.287C252.647 281.41 252.116 281.579 251.589 281.587C250.686 281.594 248.985 282.612 248.909 283.425C248.811 284.451 248.425 285.347 248.013 286.253C247.822 286.676 247.616 287.145 248.017 287.535C248.389 287.897 248.8 287.608 249.187 287.481C251.726 286.643 254.312 285.975 256.92 285.394C260.46 284.603 263.996 283.794 267.536 283.006C268.735 282.739 269.251 282.038 269.269 280.799C269.316 277.791 269.562 274.797 270.136 271.838C270.324 270.874 270.05 270.571 269.017 270.704C266.293 271.055 263.555 271.275 260.828 271.586C260.052 271.676 259.976 271.383 260.167 270.748C260.442 269.827 260.738 268.906 260.901 267.967C261.074 266.941 261.673 266.497 262.62 266.576C265.105 266.793 267.622 266.883 270.021 267.598C271.115 267.923 271.466 267.667 271.556 266.619C271.755 264.333 271.95 262.047 272.231 259.771C272.361 258.717 271.968 258.406 270.992 258.496V258.5Z" fill="white"/>
<path d="M222.281 280.279C219.356 281.197 216.311 281.114 213.161 281.46C213.457 280.471 213.782 279.655 213.93 278.809C214.136 277.625 214.812 277.48 215.816 277.69C216.881 277.914 217.969 277.939 219.056 277.888C219.634 277.859 220.129 277.682 220.302 277.047C220.782 275.277 221.259 273.507 221.743 271.737C222.01 270.759 221.613 270.517 220.706 270.741C219.114 271.134 217.539 271.582 215.884 272.333C216.759 269.224 217.961 266.432 218.922 263.56C219.027 263.242 219.236 263.203 219.5 263.246C221.552 263.586 223.69 263.456 225.662 264.232C226.594 264.601 227.027 264.424 227.273 263.427C227.768 261.4 228.357 259.4 228.895 257.384C229.003 256.98 229.791 256.774 229.339 256.243C229.021 255.871 228.469 256.048 228.021 256.084C224.503 256.358 220.988 256.694 217.47 256.9C216.054 256.983 215.335 257.362 214.725 258.865C213.555 261.751 212.511 264.673 211.445 267.595C209.657 272.5 207.646 277.325 205.695 282.172C205.02 283.855 204.297 285.524 203.481 287.142C203.21 287.68 202.426 288.175 203.138 288.691C203.864 289.219 203.954 288.164 204.362 287.857C204.409 287.821 204.5 287.835 204.673 287.814C204.279 289.204 205.193 289.201 206.114 289.168C206.739 289.146 207.371 289.128 207.992 289.06C212.37 288.568 216.755 288.149 221.104 287.405C221.703 287.304 221.866 286.954 221.942 286.492C222.231 284.747 223.011 283.162 223.52 281.489C223.647 281.07 224.073 280.601 223.697 280.229C223.307 279.846 222.765 280.12 222.281 280.272V280.279Z" fill="white"/>
<path d="M287.427 257.052C287.091 256.597 286.585 256.795 286.145 256.882C283.327 257.427 280.532 258.06 277.765 258.818C276.483 259.168 275.775 259.93 275.558 261.216C274.662 266.489 273.756 271.763 272.853 277.04C272.531 278.921 272.141 280.796 271.892 282.688C271.722 283.971 272.871 285.054 274.135 284.946C276.179 284.772 278.18 284.418 280.156 283.823C281.944 283.284 283.753 282.717 285.679 282.865C285.993 282.891 286.401 282.905 286.531 282.508C286.639 282.183 286.426 281.941 286.123 281.832C285.603 281.648 285.765 281.233 285.794 280.883C285.888 279.842 286.004 278.806 286.119 277.769C286.246 276.657 285.968 276.379 284.88 276.657C283.432 277.025 281.994 277.451 280.557 277.856C279.314 278.205 278.783 277.72 278.964 276.4C279.267 274.179 279.267 274.19 281.496 274.37C282.034 274.414 282.58 274.385 283.125 274.378C284.924 274.354 285.783 273.437 285.704 271.629C285.675 271.087 285.643 270.546 285.614 270.004C285.534 268.49 285.289 268.245 283.808 268.342C283.06 268.389 282.312 268.487 281.575 268.624C279.965 268.924 279.831 268.765 280.188 267.161C280.297 266.681 280.564 266.565 280.94 266.475C281.724 266.287 282.515 266.298 283.306 266.388C286.614 266.757 286.592 266.757 286.621 263.271C286.636 261.523 286.574 259.761 287.163 258.067C287.279 257.734 287.716 257.446 287.43 257.055L287.427 257.052Z" fill="white"/>
<path d="M76.722 239.625C76.4403 240.564 76.238 241.579 77.076 242.485C77.9032 243.385 78.7881 243.739 79.9512 243.262C80.2184 243.154 80.511 243.081 80.7964 243.038C81.1937 242.98 81.6705 242.771 81.9594 243.186C82.2556 243.612 82.2628 244.136 82.0533 244.624C81.7282 245.382 81.1178 245.924 80.4677 246.35C79.7814 246.801 79.012 247.249 78.1416 247.134C77.4047 247.036 77.3397 246.281 77.058 245.758C76.9063 245.472 76.6679 245.404 76.4584 245.628C76.0105 246.104 75.6276 246.708 74.9161 245.953C74.8835 245.917 74.6379 246.057 74.5043 246.141C73.6157 246.697 73.6374 248.196 74.4971 248.857C75.1653 249.369 75.9274 249.326 76.6968 249.413C79.5863 249.738 82.0931 249.127 83.7618 246.549C84.4011 245.563 84.5962 246.119 84.7984 246.74C85.4919 248.867 87.1173 249.666 89.1725 249.76C89.9022 249.792 90.6426 249.55 91.3758 249.416C91.6684 249.362 91.979 249.211 92.0079 249.698C92.0405 250.305 92.333 250.681 92.9471 250.753C93.6333 250.832 94.0559 250.41 94.3413 249.882C94.7964 249.041 95.1829 248.16 95.6163 247.304C95.7572 247.022 95.8114 246.599 96.2412 246.617C97.4584 246.668 98.6395 246.383 99.8387 246.263C100.485 246.198 100.651 246.809 100.543 247.094C100.063 248.362 100.525 249.723 100.023 250.995C99.7773 251.62 99.8748 252.4 100.695 252.75C101.879 253.256 102.667 252.703 102.656 251.276C102.642 249.041 102.45 246.798 103.389 244.663C103.494 244.421 103.545 244.046 103.259 243.861C102.804 243.569 102.92 243.15 102.92 242.749C102.927 240.643 102.963 238.534 102.941 236.428C102.931 235.356 101.565 234.633 100.637 235.193C99.5678 235.843 98.5998 236.616 97.9677 237.729C96.5301 240.253 95.0384 242.753 93.7272 245.339C93.3263 246.133 92.7701 246.491 92.0874 246.541C91.4914 246.588 90.9532 246.773 90.3934 246.892C88.5043 247.296 87.558 246.531 87.7603 244.649C87.9878 242.507 89.2773 240.911 90.6065 239.354C91.1411 238.729 91.8598 238.491 92.7231 238.48C93.9006 238.465 95.0601 238.393 96.1401 238.964C96.4471 239.126 96.6096 238.975 96.7505 238.744C97.4801 237.562 97.0214 236.41 95.6705 235.999C92.0657 234.901 88.3598 236.533 86.8573 239.968C86.6153 240.521 86.1963 240.994 85.8965 241.525C85.3547 242.471 84.6792 242.493 84.1808 241.608C83.3861 240.203 82.0533 240.181 80.7422 240.051C80.4243 240.019 80.092 240.127 79.5683 239.78C81.1648 238.621 82.8335 238.13 84.607 237.956C85.1596 237.902 85.6184 237.848 85.6906 237.212C85.7303 236.876 85.8748 236.688 86.1565 236.54C86.8789 236.165 86.6803 235.692 86.2288 235.273C85.7484 234.828 85.2427 234.471 84.4878 234.695C83.6245 234.951 82.6818 234.987 81.8583 235.323C79.6983 236.201 77.4769 237.1 76.7184 239.621L76.722 239.625ZM100.312 239.737C100.745 240.315 100.886 242.659 100.42 243.154C99.817 243.793 98.9646 243.5 97.9208 243.558C98.8238 242.121 99.5642 240.936 100.316 239.737H100.312Z" fill="white"/>
<path d="M157.305 259.082C157.099 259.118 157.002 259.017 157.049 258.804C157.164 258.294 156.832 258.247 156.467 258.247C155.185 258.258 153.903 258.258 152.621 258.298C152.303 258.309 151.728 258.482 151.877 258.757C152.245 259.439 151.718 259.934 151.541 260.324C149.55 264.684 148.138 269.252 146.643 273.778C144.844 279.221 143.677 284.852 142.326 290.425C142.28 290.62 142.316 290.779 142.095 290.927C141.163 291.548 141.915 291.888 142.384 292.119C143.226 292.531 144.151 292.581 145.082 292.512C145.787 292.462 146.495 292.422 147.199 292.361C147.809 292.307 148.185 291.974 148.337 291.371C149.041 288.539 149.987 285.787 150.945 283.035C153.538 275.562 154.968 267.721 158.049 260.4C158.309 259.786 158.79 258.829 157.313 259.082H157.305Z" fill="white"/>
<path d="M103.942 250.525C104.495 251.374 105.332 251.367 105.986 250.576C106.369 250.113 106.546 249.564 106.712 249.001C107.131 247.567 107.594 246.14 107.969 244.696C108.085 244.248 108.273 244.075 108.699 244.017C111.368 243.648 113.933 243.031 115.977 240.846C116.277 241.709 116.356 242.254 115.916 243.034C115.32 244.082 114.695 245.144 114.211 246.267C113.42 248.091 112.791 250.027 111.729 251.681C111.137 252.606 111.451 253.216 111.78 253.794C112.141 254.433 112.91 254.054 113.492 253.888C115.251 253.393 117.006 252.873 118.762 252.364C119.441 252.165 120.145 252.013 120.611 251.414C120.864 251.089 121.113 250.764 120.853 250.29C119.921 248.607 119.192 248.261 117.158 248.553C116.717 248.618 116.27 248.625 115.775 248.662C115.818 247.488 116.696 247.166 117.498 246.921C118.78 246.531 119.914 245.88 121.023 245.176C121.399 244.938 121.803 244.652 121.677 244.085C121.561 243.583 121.189 243.312 120.752 243.146C120.178 242.933 119.596 243.02 119.051 243.269C118.679 243.439 118.256 243.432 118.466 242.973C118.802 242.236 118.95 241.275 120.12 241.171C121.099 241.084 122.074 240.817 123.024 240.542C124.111 240.228 124.566 239.213 124.36 237.783C124.245 236.981 123.512 236.959 123.024 236.967C121.146 236.992 119.314 237.252 117.946 238.79C117.628 239.148 117.191 239.415 116.551 239.498C117.024 238.137 116.764 236.865 115.97 235.847C114.948 234.539 113.452 233.871 111.798 234.138C109.689 234.474 107.781 235.265 107.016 237.566C106.004 240.614 105.119 243.706 103.754 246.628C103.136 247.946 103.14 249.286 103.949 250.532L103.942 250.525ZM109.197 240.239C109.363 239.466 109.555 238.697 109.71 237.92C109.941 236.771 110.736 236.241 112.145 236.313C113.08 236.36 113.998 237.313 114.059 238.361C113.524 239.112 112.994 239.993 112.051 240.347C111.411 240.586 110.891 241.116 110.111 241.091C109.772 241.08 109.385 241.669 109.028 241.297C108.76 241.019 109.114 240.596 109.19 240.235L109.197 240.239Z" fill="white"/>
<path d="M133.683 253.169C134.842 253.281 134.897 252.244 135.11 251.49C135.771 249.127 136.377 246.747 137.02 244.382C137.085 244.14 137.046 243.674 137.465 243.786C137.783 243.872 137.674 244.233 137.714 244.54C137.837 245.476 138.137 246.437 138.584 247.271C138.917 247.896 139.014 248.586 139.379 249.203C139.802 249.918 140.21 250.504 141.088 250.543C142.272 250.594 143.219 249.406 143.432 247.632C143.695 245.443 144.302 243.341 145.01 241.257C145.393 240.13 145.523 238.715 147.318 239.686C147.412 239.737 147.564 239.686 147.687 239.686C148.867 239.681 149.263 240.256 148.875 241.409C148.835 241.528 148.774 241.64 148.738 241.759C147.994 244.172 147.289 246.596 146.849 249.088C146.675 250.063 147.083 250.832 148.008 250.977C148.907 251.114 149.46 250.579 149.713 249.561C150.461 246.545 151.317 243.558 152.198 240.582C152.465 239.679 152.953 238.877 154.12 238.841C154.564 238.827 155.001 238.613 155.442 238.491C155.514 238.418 155.586 238.343 155.662 238.27C155.991 237.877 156.337 237.454 156.081 236.923C155.81 236.36 155.207 236.251 154.672 236.291C152.061 236.49 149.453 236.732 146.845 236.977C146.386 237.021 145.837 237.147 145.848 237.718C145.863 238.534 145.444 238.386 145.007 238.184C143.869 237.66 143.204 238.249 142.688 239.148C142.442 239.574 142.276 240.047 142.095 240.506C141.391 242.276 141.47 244.266 140.535 246.09C139.928 243.988 139.339 241.976 138.942 239.91C138.628 238.281 137.757 237.49 136.699 238.039C136.128 238.335 135.698 239.177 135.496 239.86C134.423 243.507 133.419 247.181 132.444 250.857C132.141 251.995 132.729 253.079 133.69 253.169H133.683Z" fill="white"/>
<path d="M63.0796 250.89C63.7262 250.551 64.4197 250.518 65.0843 250.345C67.8221 249.637 70.4083 248.622 72.6694 246.892C73.1895 246.495 73.8541 246.043 73.6049 245.292C73.3738 244.584 72.6225 244.476 71.9542 244.522C71.1271 244.584 70.3072 244.743 69.4873 244.855C68.5084 244.988 68.4506 244.573 68.7504 243.764C69.1477 242.695 69.9099 242.428 70.9537 242.348C72.1493 242.258 73.3738 242.446 74.5404 241.969C75.2592 241.676 75.364 241.117 75.382 240.466C75.4037 239.748 74.8366 239.73 74.367 239.596C73.2473 239.282 72.1385 239.679 70.9573 239.661C71.026 237.732 72.5141 237.721 73.7638 237.563C75.7288 237.31 77.5709 236.952 78.9109 235.265C79.4997 234.525 79.478 233.925 78.5895 233.525C78.1596 233.333 77.7117 233.315 77.2566 233.254C73.7747 232.78 70.8815 234.384 67.9486 235.854C67.7318 235.962 67.5585 236.186 67.6235 236.475C67.8619 237.555 67.4176 238.484 67.1539 239.506C66.6555 241.431 65.6152 243.103 65.0373 244.959C64.5063 246.661 63.1844 247.65 62.0069 248.77C61.4181 249.33 61.5517 249.911 61.7107 250.482C61.9166 251.212 62.639 251.114 63.0688 250.89H63.0796Z" fill="white"/>
<path d="M196.419 247.907C196.387 247.939 196.448 248.055 196.456 248.131C196.589 249.572 195.209 250.634 195.448 252.107C195.451 252.136 195.235 252.205 195.119 252.255C194.108 252.671 194.848 253.509 194.736 254.123C194.657 254.552 195.318 254.596 195.73 254.567C197.178 254.469 198.63 254.206 200.071 254.263C201.884 254.339 203.643 254.076 205.413 253.808C206.15 253.696 206.84 253.252 206.826 252.476C206.815 251.764 206.194 251.392 205.442 251.273C204.814 251.172 204.2 251.175 203.578 251.23C202.126 251.36 200.678 251.529 199.222 251.623C198.829 251.649 198.197 251.966 198.244 251.002C198.395 247.961 198.966 247.267 201.921 246.823C202.043 246.805 202.181 246.82 202.293 246.776C203.257 246.415 204.344 246.556 205.269 245.982C205.818 245.638 205.973 245.158 205.937 244.609C205.901 244.057 205.348 243.861 204.947 243.786C204.189 243.645 203.409 243.468 202.614 243.75C201.848 244.02 201.054 244.237 200.111 244.248C200.324 243.609 200.624 243.078 200.664 242.529C200.783 240.885 201.892 240.463 203.243 240.246C205.048 239.953 206.826 239.567 208.213 238.238C208.646 237.823 209.361 237.396 208.675 236.753C208.198 236.309 207.609 235.984 206.779 236.121C204.637 236.472 202.506 236.912 200.562 237.83C199.826 238.176 198.262 238.57 198.746 239.795C199.349 241.312 198.41 242.514 197.991 243.5C197.373 244.945 197.626 246.708 196.419 247.907Z" fill="white"/>
<path d="M189.723 246.137C190.207 246.075 190.875 245.732 191.11 246.184C191.301 246.549 191.027 247.195 190.886 247.697C190.575 248.824 190.102 249.908 189.961 251.493C190.015 251.981 190.413 252.584 191.309 252.786C192.49 253.053 192.941 252.237 193.104 251.349C193.649 248.333 194.79 245.508 195.758 242.63C196.177 241.384 197.037 240.239 196.084 238.827C195.816 238.433 195.784 237.913 195.22 237.75C194.621 237.577 194.314 237.981 193.942 238.317C192.93 239.231 193.107 240.586 192.638 241.691C192.244 242.619 192.154 243.858 190.561 243.789C189.604 243.746 188.632 244.136 187.66 244.313C186.974 244.439 186.501 244.414 186.866 243.457C187.263 242.42 187.462 241.308 187.866 240.275C188.267 239.249 187.707 238.668 186.949 238.451C186.201 238.234 185.649 238.668 185.248 239.506C184.24 241.608 183.615 243.847 182.723 245.989C182.098 247.491 181.441 249.012 181.097 250.637C180.928 251.439 181.271 251.901 181.805 252.335C182.17 252.631 182.629 252.613 182.95 252.349C183.655 251.775 184.529 251.208 184.652 250.269C184.991 247.679 186.331 246.281 188.982 246.22C189.232 246.213 189.481 246.173 189.726 246.14L189.723 246.137Z" fill="white"/>
<path d="M170.811 244.335C171.67 244.187 172.53 244.049 173.39 243.901C173.823 243.825 174.054 243.894 173.863 244.414C172.822 247.21 172.515 250.175 171.872 253.061C171.71 253.79 172.017 254.419 172.696 254.632C173.404 254.852 174.137 254.487 174.249 253.765C174.441 252.512 175.141 251.425 175.372 250.254C175.752 248.337 176.29 246.458 176.622 244.533C176.77 243.666 177.24 243.258 178.136 243.204C179.508 243.121 180.881 242.977 182.246 242.81C182.907 242.731 183.575 242.583 183.832 241.803C184.067 241.08 183.662 240.651 182.997 240.279C183.409 240.102 183.687 240.019 183.922 239.87C184.312 239.628 184.731 239.365 184.536 238.787C184.355 238.252 183.936 237.931 183.406 237.909C182.745 237.884 182.069 237.931 181.419 238.043C179.295 238.408 177.168 238.772 175.058 239.224C173.028 239.657 171.016 240.192 169.001 240.69C168.109 240.911 167.831 241.503 168.008 242.37C168.235 243.504 169.702 244.53 170.818 244.335H170.811Z" fill="white"/>
<path d="M155.442 238.487C154.741 239.802 153.531 240.773 153.032 242.236C152.086 245.003 151.898 247.748 153.065 250.489C153.534 251.591 155.012 252.194 156.171 251.797C157.204 251.443 158.129 250.883 158.898 250.106C161.542 247.448 162.871 244.205 163.023 240.492C163.142 237.581 161 236.082 158.208 236.967C157.273 237.263 156.601 238.014 155.658 238.26C155.619 238.364 155.543 238.437 155.438 238.48L155.442 238.487ZM159.389 240.679C160.141 240.549 160.17 240.95 160.13 241.424C159.971 243.323 159.487 245.108 158.273 246.639C157.746 247.304 157.103 247.853 156.258 247.495C155.395 247.134 154.961 246.375 155.207 245.418C155.33 242.839 156.908 241.109 159.393 240.676L159.389 240.679Z" fill="white"/>
<path d="M184.07 272.918C182.828 272.333 181.636 272.676 180.411 272.702C178.739 273.001 177.009 272.839 175.354 273.352C174.766 273.532 174.242 273.749 174.094 274.399C173.758 275.851 173.422 277.307 173.151 278.773C173.068 279.217 173.382 279.983 173.798 279.626C174.549 278.986 175.311 279.337 176.041 279.217C178.432 278.824 180.852 278.733 183.261 279.048C183.976 279.142 184.171 278.809 184.24 278.26C184.424 276.776 184.579 275.288 184.753 273.803C184.814 273.262 184.583 273.16 184.066 272.918H184.07Z" fill="white"/>
<path d="M128.359 254.032C128.489 254.361 129.027 254.776 129.479 254.697C130.15 254.581 130.476 253.993 130.663 253.368C131.425 250.814 131.678 248.163 132.123 245.552C132.487 243.414 133.231 241.33 133.105 239.105C133.076 238.599 133.109 238.177 132.585 237.992C132.014 237.79 131.704 238.137 131.357 238.563C130.36 239.802 129.973 241.232 129.753 242.771C129.294 246.003 127.727 249.03 127.904 252.562C127.795 253.003 128.157 253.53 128.355 254.032H128.359Z" fill="white"/>
</svg>
